<svg xmlns="http://www.w3.org/2000/svg" width="72" height="72" viewBox="0 0 72 72">
  <defs>
    <linearGradient id="grad" x1="0%" y1="0%" x2="100%" y2="100%">
      <stop offset="0%" style="stop-color:#0066cc;stop-opacity:1" />
      <stop offset="100%" style="stop-color:#004499;stop-opacity:1" />
    </linearGradient>
  </defs>
  
  <circle cx="36" cy="36" r="34" fill="url(#grad)" />
  
  <g transform="translate(14, 10) scale(.432)">
    <path d="M50 10 C70 10 85 25 85 45 C85 55 80 65 75 75 C70 85 65 95 50 100 C35 95 30 85 25 75 C20 65 15 55 15 45 C15 25 30 10 50 10 Z" 
          fill="white" stroke="none"/>
    <circle cx="35" cy="35" r="3" fill="#0066cc"/>
    <circle cx="65" cy="35" r="3" fill="#0066cc"/>
    <path d="M30 60 Q50 75 70 60" stroke="#0066cc" stroke-width="2" fill="none"/>
  </g>
  
  <text x="36" y="61" text-anchor="middle" 
        font-family="Arial, sans-serif" 
        font-size="5" 
        font-weight="bold" 
        fill="white">ERP</text>
</svg>
